<?xml version="1.0" encoding="iso-8859-1"?>
<!-- Uploaded to: SVG Repo, www.svgrepo.com, Generator: SVG Repo Mixer Tools -->
<!DOCTYPE svg PUBLIC "-//W3C//DTD SVG 1.1//EN" "http://www.w3.org/Graphics/SVG/1.1/DTD/svg11.dtd">
<svg fill="#000000" version="1.1" id="Capa_1" xmlns="http://www.w3.org/2000/svg" xmlns:xlink="http://www.w3.org/1999/xlink" 
	 width="800px" height="800px" viewBox="0 0 55.277 55.277"
	 xml:space="preserve">
<g>
	<g>
		<path d="M49.849,37.729c-1.667-2.193-4.478-3.451-7.71-3.451h-29c-3.233,0-6.043,1.258-7.71,3.451
			c-1.561,2.053-2,4.699-1.235,7.45c1.573,5.663,7.698,10.099,13.945,10.099h19c6.247,0,12.372-4.436,13.944-10.099
			C51.849,42.428,51.409,39.781,49.849,37.729z M48.194,44.377c-1.21,4.355-6.17,7.9-11.055,7.9h-19
			c-4.885,0-9.845-3.545-11.055-7.9c-0.508-1.827-0.247-3.543,0.733-4.833c1.11-1.461,3-2.267,5.321-2.267h29
			c2.32,0,4.211,0.806,5.32,2.267C48.441,40.834,48.701,42.549,48.194,44.377z"/>
		<path d="M12.472,31.277h7.667c3.584,0,6.5-2.916,6.5-6.5V3.779C26.639,0.491,25.165,0,24.286,0c-1.056,0-2.013,0.778-2.926,2.38
			L8.645,24.691c-0.924,1.62-1.025,3.286-0.28,4.568C9.11,30.542,10.606,31.277,12.472,31.277z M11.25,26.177L23.639,4.44v20.338
			c0,1.93-1.57,3.5-3.5,3.5h-7.667c-0.757,0-1.322-0.195-1.514-0.525C10.767,27.423,10.875,26.834,11.25,26.177z"/>
		<path d="M36.471,31.277h7.667c2.613,0,3.621-1.252,3.988-1.998c0.368-0.746,0.747-2.309-0.846-4.38L35.706,9.83
			c-1.003-1.306-2.04-1.968-3.081-1.968c-0.622,0-2.653,0.283-2.653,3.917v12.999C29.971,28.361,32.887,31.277,36.471,31.277z
			 M32.971,11.779c0-0.204,0.009-0.376,0.021-0.519c0.099,0.104,0.21,0.235,0.334,0.398l11.575,15.069
			c0.57,0.741,0.565,1.162,0.533,1.226c-0.031,0.064-0.362,0.324-1.298,0.324H36.47c-1.931,0-3.5-1.569-3.5-3.5L32.971,11.779
			L32.971,11.779z"/>
	</g>
</g>
</svg>